<!--
  - The MIT License (MIT)
  -
  - Copyright (c) 2015-2023 Elior "Mallowigi" Boukhobza
  -
  - Permission is hereby granted, free of charge, to any person obtaining a copy
  - of this software and associated documentation files (the "Software"), to deal
  - in the Software without restriction, including without limitation the rights
  - to use, copy, modify, merge, publish, distribute, sublicense, and/or sell
  - copies of the Software, and to permit persons to whom the Software is
  - furnished to do so, subject to the following conditions:
  -
  - The above copyright notice and this permission notice shall be included in all
  - copies or substantial portions of the Software.
  -
  - THE SOFTWARE IS PROVIDED "AS IS", WITHOUT WARRANTY OF ANY KIND, EXPRESS OR
  - IMPLIED, INCLUDING BUT NOT LIMITED TO THE WARRANTIES OF MERCHANTABILITY,
  - FITNESS FOR A PARTICULAR PURPOSE AND NONINFRINGEMENT. IN NO EVENT SHALL THE
  - AUTHORS OR COPYRIGHT HOLDERS BE LIABLE FOR ANY CLAIM, DAMAGES OR OTHER
  - LIABILITY, WHETHER IN AN ACTION OF CONTRACT, TORT OR OTHERWISE, ARISING FROM,
  - OUT OF OR IN CONNECTION WITH THE SOFTWARE OR THE USE OR OTHER DEALINGS IN THE
  - SOFTWARE.
  -
  -
  -->

<svg role="img" viewBox="0 0 24 24" xmlns="http://www.w3.org/2000/svg" width="24px" height="24px">
  <path fill="#FFCA28"
        d="M22.269 19.385H1.731a1.73 1.73 0 0 1-1.73-1.73V6.345a1.73 1.73 0 0 1 1.73-1.73h20.538a1.73 1.73 0 0 1 1.73 1.73v11.308a1.73 1.73 0 0 1-1.73 1.731zm-16.5-3.462v-4.5l2.308 2.885 2.307-2.885v4.5h2.308V8.078h-2.308l-2.307 2.885-2.308-2.885H3.461v7.847zM21.231 12h-2.308V8.077h-2.307V12h-2.308l3.461 4.039z"/>
</svg>
