<?xml version="1.0" encoding="iso-8859-1"?>
<!-- Generator: Adobe Illustrator 19.0.0, SVG Export Plug-In . SVG Version: 6.00 Build 0)  -->
<svg version="1.1" id="Layer_1" xmlns="http://www.w3.org/2000/svg" x="0px" y="0px"
     viewBox="0 0 505 505" style="enable-background:new 0 0 505 505;" xml:space="preserve">
<circle style="fill:#84DBFF;" cx="252.5" cy="252.5" r="252.5"/>
    <polygon style="fill:#FF7058;" points="91.4,390.1 116.6,364.9 143.5,391.8 125,410.3 "/>
    <path style="fill:#324A5E;" d="M409.6,161.6l-62.9-62.9c-5.2-5.2-13.8-5.3-19.2-0.3L167.8,246.9l93.5,93.5l148.5-159.7
	C414.9,175.4,414.8,166.8,409.6,161.6z"/>
    <rect x="136.616" y="288.783" transform="matrix(-0.7071 -0.7071 0.7071 -0.7071 130.1331 664.8694)"
          style="fill:#2B3B4E;" width="132.299" height="33.4"/>
    <path style="fill:#FFFFFF;" d="M143.6,391.9l-13.5-13.5l0,0l-13.6-13.6c24.9-54.8,27.9-94.2,27.9-94.2l46.7,46.7l0,0l46.7,46.7
	C237.8,364,198.4,366.9,143.6,391.9z"/>
</svg>
